<svg width="392" height="392" viewBox="0 0 392 392" fill="none" xmlns="http://www.w3.org/2000/svg">
<rect width="392" height="392" fill="#1B432E"/>
<path d="M87.1945 238C86.8532 238 86.6825 237.787 86.6825 237.36L86.9385 149.424C86.9385 149.083 87.1092 148.912 87.4505 148.912H103.067C103.408 148.912 103.707 149.083 103.963 149.424L115.611 166.32L127.259 149.424C127.515 149.083 127.813 148.912 128.155 148.912H143.899C144.24 148.912 144.411 149.083 144.411 149.424L144.667 237.36C144.667 237.787 144.496 238 144.155 238H129.691C129.349 238 129.179 237.787 129.179 237.36L129.051 172.08L115.611 191.536L102.299 172.08L102.171 237.36C102.171 237.787 102 238 101.659 238H87.1945ZM151.081 237.36L166.953 149.424C167.038 149.083 167.251 148.912 167.593 148.912H186.153C186.494 148.912 186.707 149.083 186.793 149.424L202.025 237.36C202.11 237.787 201.939 238 201.513 238H187.305C186.963 238 186.75 237.787 186.665 237.36L185.257 228.016H167.849L166.441 237.36C166.355 237.787 166.142 238 165.801 238H151.593C151.251 238 151.081 237.787 151.081 237.36ZM170.409 214.32H182.697L177.449 178.352L176.681 173.616L176.169 178.352L170.409 214.32ZM205.352 238C204.925 238 204.712 237.787 204.712 237.36L204.84 223.408L236.2 163.504H206.504C206.162 163.504 205.992 163.333 205.992 162.992V149.552C205.992 149.125 206.162 148.912 206.504 148.912H252.84C253.266 148.912 253.48 149.125 253.48 149.552V163.376L222.248 223.024H253.096C253.437 223.024 253.608 223.237 253.608 223.664L253.736 237.36C253.736 237.787 253.522 238 253.096 238H205.352ZM262.32 238C261.978 238 261.808 237.787 261.808 237.36L261.936 149.424C261.936 149.083 262.106 148.912 262.448 148.912H303.536C303.877 148.912 304.048 149.125 304.048 149.552V163.888C304.048 164.229 303.877 164.4 303.536 164.4H277.296V184.368H303.536C303.877 184.368 304.048 184.539 304.048 184.88L304.176 199.344C304.176 199.685 304.005 199.856 303.664 199.856H277.296V222.256H303.664C304.005 222.256 304.176 222.469 304.176 222.896V237.488C304.176 237.829 304.005 238 303.664 238H262.32Z" fill="#FFB703"/>
<path d="M174.018 124.47L187.162 51.648C187.233 51.3653 187.409 51.224 187.692 51.224H203.062C203.345 51.224 203.521 51.3653 203.592 51.648L216.206 124.47C216.277 124.823 216.135 125 215.782 125H204.016C203.733 125 203.557 124.823 203.486 124.47L202.32 116.732H187.904L186.738 124.47C186.667 124.823 186.491 125 186.208 125H174.442C174.159 125 174.018 124.823 174.018 124.47ZM190.024 105.39H200.2L195.854 75.604L195.218 71.682L194.794 75.604L190.024 105.39Z" fill="white"/>
<path d="M104.892 351C104.609 351 104.468 350.823 104.468 350.47V290.05H90.6878C90.3344 290.05 90.1578 289.873 90.1578 289.52L90.2638 277.648C90.2638 277.365 90.4051 277.224 90.6878 277.224H130.968C131.321 277.224 131.498 277.365 131.498 277.648V289.52C131.498 289.873 131.356 290.05 131.074 290.05H117.188L117.294 350.47C117.294 350.823 117.152 351 116.87 351H104.892ZM137.157 351C136.874 351 136.733 350.823 136.733 350.47L136.839 277.648C136.839 277.365 137.016 277.224 137.369 277.224H149.135C149.488 277.224 149.665 277.365 149.665 277.648L149.559 306.48H165.459V277.648C165.459 277.365 165.6 277.224 165.883 277.224H177.649C178.003 277.224 178.179 277.365 178.179 277.648L178.391 350.47C178.391 350.823 178.215 351 177.861 351H165.989C165.636 351 165.459 350.823 165.459 350.47V319.306H149.559V350.47C149.559 350.823 149.418 351 149.135 351H137.157ZM187.572 351C187.218 351 187.042 350.823 187.042 350.47L187.148 277.648C187.148 277.365 187.289 277.224 187.572 277.224H199.444C199.726 277.224 199.868 277.365 199.868 277.648L199.974 350.47C199.974 350.823 199.832 351 199.55 351H187.572ZM210.252 351C209.686 351 209.404 350.753 209.404 350.258L209.298 278.072C209.298 277.507 209.58 277.224 210.146 277.224H219.686L237.6 318.988L237.07 278.072C237.07 277.507 237.388 277.224 238.024 277.224H248.518C248.942 277.224 249.154 277.507 249.154 278.072L249.26 350.364C249.26 350.788 249.083 351 248.73 351H239.402L221.064 311.992L221.806 350.152C221.806 350.717 221.488 351 220.852 351H210.252ZM277.866 352.06C274.05 352.06 270.587 351.106 267.478 349.198C264.368 347.29 261.86 344.746 259.952 341.566C258.114 338.315 257.196 334.711 257.196 330.754V297.152C257.196 293.336 258.114 289.838 259.952 286.658C261.86 283.407 264.368 280.828 267.478 278.92C270.658 277.012 274.12 276.058 277.866 276.058C281.752 276.058 285.25 277.012 288.36 278.92C291.54 280.757 294.048 283.266 295.886 286.446C297.723 289.626 298.642 293.195 298.642 297.152V302.028C298.642 302.311 298.465 302.452 298.112 302.452H286.24C285.957 302.452 285.816 302.311 285.816 302.028V298C285.816 295.315 285.038 293.089 283.484 291.322C282 289.555 280.127 288.672 277.866 288.672C275.816 288.672 273.979 289.52 272.354 291.216C270.799 292.912 270.022 294.891 270.022 297.152V330.754C270.022 333.086 270.799 335.1 272.354 336.796C273.908 338.421 275.746 339.234 277.866 339.234C280.127 339.234 282 338.421 283.484 336.796C285.038 335.171 285.816 333.157 285.816 330.754V325.56H278.396C278.042 325.56 277.866 325.383 277.866 325.03V313.158C277.866 312.805 278.042 312.628 278.396 312.628H298.218C298.5 312.628 298.642 312.805 298.642 313.158V330.754C298.642 334.711 297.688 338.315 295.78 341.566C293.942 344.746 291.469 347.29 288.36 349.198C285.25 351.106 281.752 352.06 277.866 352.06Z" fill="white"/>
</svg>
