<?xml version="1.0" encoding="iso-8859-1"?>
<!-- Generator: Adobe Illustrator 18.0.0, SVG Export Plug-In . SVG Version: 6.00 Build 0)  -->
<!DOCTYPE svg PUBLIC "-//W3C//DTD SVG 1.1//EN" "http://www.w3.org/Graphics/SVG/1.1/DTD/svg11.dtd">
<svg version="1.1" id="Capa_1" xmlns="http://www.w3.org/2000/svg" xmlns:xlink="http://www.w3.org/1999/xlink" x="0px" y="0px"
	 viewBox="0 0 297.5 297.5" style="enable-background:new 0 0 297.5 297.5;" xml:space="preserve">
<g id="XMLID_33_">
	<g>
		<path style="fill:#7AC1A3;" d="M248.409,234.01c0.9,1.91,0.81,2.99,0.77,3.12c-0.13,0.15-1.07,0.69-3.19,0.69h-59.5v-5.75
			l18.42-18.41c1.87-1.88,2.93-4.43,2.93-7.08c0-2.66-1.06-5.2-2.93-7.08l-17.33-17.32c-3.64-3.65-9.41-3.89-13.34-0.73v-16.69
			c0-5.53-4.48-10.01-10-10.01h-24.5c-5.53,0-10.01,4.48-10.01,10.01v4.54l-2.33-2.34c-1.88-1.88-4.43-2.93-7.08-2.93
			c-2.66,0-5.2,1.05-7.08,2.93l-17.32,17.32c-3.91,3.91-3.91,10.25,0,14.16l21.56,21.56v17.82h-65.97c-2.11,0-3.05-0.54-3.15-0.63
			c-0.07-0.19-0.17-1.27,0.74-3.18l99.65-210.95L248.409,234.01z"/>
		<path style="fill:#C7A488;" d="M180.509,203.41l3.16,3.17l-14.26,14.27c-1.88,1.87-2.93,4.42-2.93,7.07v49.31h-28.98v-61.37
			c0-2.66-1.05-5.2-2.93-7.08l-17.42-17.42l3.17-3.17l12.34,12.35c2.87,2.86,7.17,3.71,10.91,2.17c3.74-1.55,6.18-5.2,6.18-9.25
			v-18.69h4.48v30.76c0,4.05,2.44,7.7,6.18,9.24c3.74,1.55,8.04,0.7,10.9-2.17L180.509,203.41z"/>
		<path d="M266.509,225.46c3.73,7.91,3.57,16.08-0.44,22.41c-4.01,6.34-11.33,9.97-20.08,9.97h-59.5v29.4
			c0,5.53-4.48,10.01-10.01,10.01h-48.99c-5.52,0-10.01-4.48-10.01-10.01v-29.4h-65.97c-8.74,0-16.06-3.63-20.07-9.97
			c-4.02-6.33-4.18-14.5-0.44-22.41l100.15-212.01c5.63-11.91,14.19-13.2,17.6-13.2c3.42,0,11.97,1.29,17.6,13.2L266.509,225.46z
			 M249.179,237.13c0.04-0.13,0.13-1.21-0.77-3.12l-99.66-210.95l-99.65,210.95c-0.91,1.91-0.81,2.99-0.74,3.18
			c0.1,0.09,1.04,0.63,3.15,0.63h65.97V220l-21.56-21.56c-3.91-3.91-3.91-10.25,0-14.16l17.32-17.32c1.88-1.88,4.42-2.93,7.08-2.93
			c2.65,0,5.2,1.05,7.08,2.93l2.33,2.34v-4.54c0-5.53,4.48-10.01,10.01-10.01h24.5c5.52,0,10,4.48,10,10.01v16.69
			c3.93-3.16,9.7-2.92,13.34,0.73l17.33,17.32c1.87,1.88,2.93,4.42,2.93,7.08c0,2.65-1.06,5.2-2.93,7.08l-18.42,18.41v5.75h59.5
			C248.109,237.82,249.049,237.28,249.179,237.13z M183.669,206.58l-3.16-3.17l-9.2,9.19c-2.86,2.87-7.16,3.72-10.9,2.17
			c-3.74-1.54-6.18-5.19-6.18-9.24v-30.76h-4.48v18.69c0,4.05-2.44,7.7-6.18,9.25c-3.74,1.54-8.04,0.69-10.91-2.17l-12.34-12.35
			l-3.17,3.17l17.42,17.42c1.88,1.88,2.93,4.42,2.93,7.08v61.37h28.98v-49.31c0-2.65,1.05-5.2,2.93-7.07L183.669,206.58z"/>
	</g>
	<g>
	</g>
</g>
<g>
</g>
<g>
</g>
<g>
</g>
<g>
</g>
<g>
</g>
<g>
</g>
<g>
</g>
<g>
</g>
<g>
</g>
<g>
</g>
<g>
</g>
<g>
</g>
<g>
</g>
<g>
</g>
<g>
</g>
</svg>
