<?xml version="1.0" encoding="iso-8859-1"?>
<!-- Generator: Adobe Illustrator 19.0.0, SVG Export Plug-In . SVG Version: 6.00 Build 0)  -->
<svg version="1.1" id="Layer_1" xmlns="http://www.w3.org/2000/svg" xmlns:xlink="http://www.w3.org/1999/xlink" x="0px" y="0px"
	 viewBox="0 0 512 512" style="enable-background:new 0 0 512 512;" xml:space="preserve">
<path d="M494.933,251.733h-30.464L288,66.901c1.28-3.584,2.133-7.424,2.133-11.435c0-18.859-15.275-34.133-34.133-34.133
	c-18.859,0-34.133,15.275-34.133,34.133c0,4.011,0.853,7.851,2.133,11.435L47.531,251.733H17.067C7.68,251.733,0,259.413,0,268.8
	v204.8c0,9.387,7.68,17.067,17.067,17.067h477.867c9.387,0,17.067-7.68,17.067-17.067V268.8
	C512,259.413,504.32,251.733,494.933,251.733z M256,38.4c9.387,0,17.067,7.68,17.067,17.067S265.387,72.533,256,72.533
	c-9.387,0-17.067-7.68-17.067-17.067S246.613,38.4,256,38.4z M233.899,81.237c5.973,5.12,13.653,8.363,22.101,8.363
	c8.448,0,16.128-3.243,22.101-8.363l162.731,170.496H71.168L233.899,81.237z M494.933,473.6H17.067V268.8h477.867V473.6z"/>
<g>
	<circle style="fill:#BDBDBD;" cx="256" cy="55.467" r="17.067"/>
	<path style="fill:#BDBDBD;" d="M17.067,268.8v204.8h477.867V268.8H17.067z M330.325,407.808c3.328,3.328,3.328,8.789,0,12.117
		l-25.6,25.6c-1.707,1.621-3.84,2.475-6.059,2.475s-4.352-0.853-6.059-2.475L256,408.832l-36.608,36.693
		c-3.328,3.328-8.789,3.328-12.117,0l-25.6-25.6c-3.328-3.328-3.328-8.789,0-12.117l36.693-36.608l-36.693-36.608
		c-3.328-3.328-3.328-8.789,0-12.117l25.6-25.6c3.328-3.328,8.789-3.328,12.117,0L256,333.568l36.608-36.693
		c3.328-3.328,8.789-3.328,12.117,0l25.6,25.6c3.328,3.328,3.328,8.789,0,12.117L293.632,371.2L330.325,407.808z"/>
</g>
<path d="M293.632,371.2l36.693-36.608c3.328-3.328,3.328-8.789,0-12.117l-25.6-25.6c-3.328-3.328-8.789-3.328-12.117,0L256,333.568
	l-36.608-36.693c-3.328-3.328-8.789-3.328-12.117,0l-25.6,25.6c-3.328,3.328-3.328,8.789,0,12.117l36.693,36.608l-36.693,36.608
	c-3.328,3.328-3.328,8.789,0,12.117l25.6,25.6c3.328,3.328,8.789,3.328,12.117,0L256,408.832l36.608,36.693
	c1.707,1.621,3.84,2.475,6.059,2.475s4.352-0.853,6.059-2.475l25.6-25.6c3.328-3.328,3.328-8.789,0-12.117L293.632,371.2z
	 M298.667,427.435l-36.608-36.693c-1.707-1.621-3.84-2.475-6.059-2.475c-2.219,0-4.352,0.853-6.059,2.475l-36.608,36.693
	l-13.568-13.568l36.693-36.608c3.328-3.328,3.328-8.789,0-12.117l-36.693-36.608l13.568-13.568l36.608,36.693
	c3.328,3.328,8.789,3.328,12.117,0l36.608-36.693l13.568,13.568l-36.693,36.608c-3.328,3.328-3.328,8.789,0,12.117l36.693,36.608
	L298.667,427.435z"/>
<path style="fill:#D50000;" d="M275.541,377.259l36.693,36.608l-13.568,13.568l-36.608-36.693c-1.707-1.621-3.84-2.475-6.059-2.475
	c-2.219,0-4.352,0.853-6.059,2.475l-36.608,36.693l-13.568-13.568l36.693-36.608c3.328-3.328,3.328-8.789,0-12.117l-36.693-36.608
	l13.568-13.568l36.608,36.693c3.328,3.328,8.789,3.328,12.117,0l36.608-36.693l13.568,13.568l-36.693,36.608
	C272.213,368.469,272.213,373.931,275.541,377.259z"/>
<g>
	<polygon style="fill:#90A4AE;" points="477.867,268.8 477.867,456.533 17.067,456.533 17.067,473.6 494.933,473.6 494.933,268.8 	
		"/>
	<path style="fill:#90A4AE;" d="M262.989,39.945c0.973,2.142,1.545,4.497,1.545,6.989c0,9.387-7.68,17.067-17.067,17.067
		c-2.492,0-4.847-0.572-6.989-1.545c2.688,5.922,8.627,10.078,15.522,10.078c9.387,0,17.067-7.68,17.067-17.067
		C273.067,48.572,268.911,42.633,262.989,39.945z"/>
</g>
<g>
</g>
<g>
</g>
<g>
</g>
<g>
</g>
<g>
</g>
<g>
</g>
<g>
</g>
<g>
</g>
<g>
</g>
<g>
</g>
<g>
</g>
<g>
</g>
<g>
</g>
<g>
</g>
<g>
</g>
</svg>
