<?xml version="1.0" encoding="iso-8859-1"?>
<!-- Generator: Adobe Illustrator 19.0.0, SVG Export Plug-In . SVG Version: 6.00 Build 0)  -->
<svg version="1.1" id="Layer_1" xmlns="http://www.w3.org/2000/svg" xmlns:xlink="http://www.w3.org/1999/xlink" x="0px" y="0px"
	 viewBox="0 0 496.162 496.162" style="enable-background:new 0 0 496.162 496.162;" xml:space="preserve">
<path style="fill:#334D5C;" d="M248.077,0C111.072,0,0.002,111.062,0.002,248.083c0,137.005,111.07,248.079,248.075,248.079
	c137.013,0,248.083-111.074,248.083-248.079C496.16,111.062,385.09,0,248.077,0z"/>
<path style="fill:#C47516;" d="M407.361,326.619v4.785l-156.965-87.906c-1.438-0.805-3.191-0.805-4.63,0L88.823,331.391v-4.685
	h-3.291v8.988c-0.008,0.11-0.022,0.218-0.022,0.329c0,1.715,0.926,3.296,2.423,4.134l157.833,88.392
	c0.719,0.402,1.517,0.604,2.315,0.604c0.798,0,1.596-0.202,2.315-0.604l157.833-88.392c1.497-0.838,2.423-2.419,2.423-4.134v-9.405
	L407.361,326.619L407.361,326.619z"/>
<path style="fill:#D68922;" d="M408.229,322.765l-157.833-88.392c-1.438-0.805-3.191-0.805-4.63,0L87.933,322.765
	c-1.497,0.838-2.423,2.419-2.423,4.134s0.926,3.296,2.423,4.134l157.833,88.393c0.719,0.402,1.517,0.604,2.315,0.604
	s1.596-0.202,2.315-0.604l157.833-88.393c1.497-0.838,2.423-2.419,2.423-4.134S409.726,323.602,408.229,322.765z"/>
<path style="fill:#E79E2F;" d="M345.664,325.664L261.491,74.731c-0.475-1.418-1.803-2.373-3.298-2.373h-19.435
	c-1.491,0-2.817,0.95-3.295,2.364l-84.962,250.933c-0.43,1.271-0.092,2.675,0.87,3.61c1.751,1.703,43.517,41.698,98.51,41.698
	c55.084,0,93.415-40.102,95.019-41.809C345.778,328.22,346.071,326.879,345.664,325.664z"/>
<g>
	<path style="fill:#F7E7D3;" d="M315.293,235.123c-16.5,9.773-39.03,18.971-65.412,18.971c-27.112,0-50.99-9.716-68.456-19.775
		l-14.063,41.535c17.304,12.258,47.167,28.778,82.518,28.778c34.785,0,62.874-15.986,79.268-28.203L315.293,235.123z"/>
	<path style="fill:#F7E7D3;" d="M284.564,143.517c-10.544,3.215-22.178,5.289-34.683,5.289c-13.41,0-26.026-2.381-37.471-6
		l-15.163,44.787c15.048,6.638,32.989,11.751,52.634,11.751c18.803,0,35.65-4.676,49.753-10.899L284.564,143.517z"/>
</g>
<path style="fill:#D38722;" d="M261.491,74.731c-0.475-1.418-1.435-2.404-3.298-2.842s-4.585-1.141-9.849-1.141
	s-7.81,0.57-9.586,1.141c-1.775,0.571-2.702,1.349-3.225,2.669c4.827,1.104,8.574,1.806,13.469,1.806
	c3.974,0,8.643-0.702,12.527-1.517L261.491,74.731z"/>
<g>
</g>
<g>
</g>
<g>
</g>
<g>
</g>
<g>
</g>
<g>
</g>
<g>
</g>
<g>
</g>
<g>
</g>
<g>
</g>
<g>
</g>
<g>
</g>
<g>
</g>
<g>
</g>
<g>
</g>
</svg>
