<svg xmlns="http://www.w3.org/2000/svg" xmlns:xlink="http://www.w3.org/1999/xlink" version="1.1" width="256" height="256" viewBox="0 0 256 256" xml:space="preserve">

<defs>
</defs>
<g style="stroke: none; stroke-width: 0; stroke-dasharray: none; stroke-linecap: butt; stroke-linejoin: miter; stroke-miterlimit: 10; fill: none; fill-rule: nonzero; opacity: 1;" transform="translate(1.4065934065934016 1.4065934065934016) scale(2.81 2.81)" >
	<path d="M 80.496 9.503 c -12.65 -12.65 -33.236 -12.65 -45.887 0 c 0 0 0 0 0 0 C 22.795 21.319 22.018 40.051 32.27 52.78 L 1.025 84.025 c -1.367 1.366 -1.367 3.583 0 4.949 C 1.708 89.658 2.604 90 3.5 90 s 1.792 -0.342 2.475 -1.025 L 37.219 57.73 c 5.914 4.764 13.123 7.149 20.333 7.149 c 8.309 0 16.618 -3.162 22.943 -9.488 C 93.147 42.739 93.147 22.155 80.496 9.503 z M 75.547 50.441 c -9.922 9.921 -26.066 9.921 -35.988 0 c -9.922 -9.922 -9.922 -26.066 0 -35.988 v 0 c 9.921 -9.922 26.066 -9.922 35.988 0 S 85.469 40.52 75.547 50.441 z" style="stroke: none; stroke-width: 1; stroke-dasharray: none; stroke-linecap: butt; stroke-linejoin: miter; stroke-miterlimit: 10; fill: #B4C6BC; fill-rule: nonzero; opacity: 1;" transform=" matrix(1 0 0 1 0 0) " stroke-linecap="round" />
	<path d="M 57.553 46.243 c -1.933 0 -3.5 -1.567 -3.5 -3.5 V 20.446 c 0 -1.933 1.567 -3.5 3.5 -3.5 s 3.5 1.567 3.5 3.5 v 22.297 C 61.053 44.676 59.485 46.243 57.553 46.243 z" style="stroke: none; stroke-width: 1; stroke-dasharray: none; stroke-linecap: butt; stroke-linejoin: miter; stroke-miterlimit: 10; fill: #B4C6BC; fill-rule: nonzero; opacity: 1;" transform=" matrix(1 0 0 1 0 0) " stroke-linecap="round" />
	<path d="M 68.702 35.095 H 46.404 c -1.933 0 -3.5 -1.567 -3.5 -3.5 s 1.567 -3.5 3.5 -3.5 h 22.298 c 1.933 0 3.5 1.567 3.5 3.5 S 70.635 35.095 68.702 35.095 z" style="stroke: none; stroke-width: 1; stroke-dasharray: none; stroke-linecap: butt; stroke-linejoin: miter; stroke-miterlimit: 10; fill: #B4C6BC; fill-rule: nonzero; opacity: 1;" transform=" matrix(1 0 0 1 0 0) " stroke-linecap="round" />
</g>
</svg>