<?xml version="1.0" encoding="iso-8859-1"?>
<!-- Generator: Adobe Illustrator 19.0.0, SVG Export Plug-In . SVG Version: 6.00 Build 0)  -->
<svg version="1.1" id="Capa_1" xmlns="http://www.w3.org/2000/svg" xmlns:xlink="http://www.w3.org/1999/xlink" x="0px" y="0px"
	 viewBox="0 0 463 463" style="enable-background:new 0 0 463 463;" xml:space="preserve">
<g>
	<g id="XMLID_69_">
		<g>
			<path style="fill:#CCB48D;" d="M305.74,21.43c-0.931,6.58-1.08,17.9,0.87,38.36c-1.66-2.71-5.32-11.87-8.24-22.94
				c-3.12-11.82-3.49-18.53-3.22-21.62C299.99,16.13,303.75,19.35,305.74,21.43z"/>
			<path style="fill:#CCB48D;" d="M408.33,150.64c14.2,13.52,23.38,27.67,23.38,36.06c0,16.04-27.21,16.68-27.46,16.68
				c-0.59,0.01-1.17,0.08-1.73,0.23c-25.979,6.49-50.42,0.12-65.359-17.04c-2.72-3.12-7.46-3.45-10.59-0.73
				c-3.12,2.72-3.45,7.46-0.73,10.59c15.65,17.96,39.18,26.58,64.91,24.33c-4.68,37.31-28.65,65.24-48.16,82.21
				c-12.5,10.88-25.06,18.93-34.6,24.1c0.88-3.36-0.67-6.99-3.9-8.61c-3.71-1.85-8.21-0.35-10.06,3.36l-8.15,16.29
				c-0.01,0.02-0.01,0.05-0.02,0.07c-0.33,0.67-0.561,1.4-0.681,2.17c-0.01,0.06-0.02,0.12-0.029,0.18
				c-0.03,0.31-0.061,0.62-0.061,0.93c0,0.05,0.01,0.1,0.01,0.14c0,0.07,0.011,0.14,0.011,0.21c0.01,0.36,0.05,0.71,0.12,1.06
				c0,0.01,0,0.03,0,0.04c0,0,0.01,0.03,0.01,0.04c0,0.01,0.01,0.03,0.01,0.04c0.3,1.52,4.56,23.02,9.58,44.42
				c3.07,13.06,5.84,23.57,8.21,31.23c4.35,14.03,7.25,18.65,12.42,19.76c1.34,0.29,2.75,0.45,4.23,0.63
				c6.319,0.76,11.59,1.39,13.5,8.97h-27.25c-4.73,0-8.9-3.02-10.36-7.51c-25.271-77.54-35.23-110.41-36.2-115.61
				c0.28-2.92,3.67-12.52,7.48-21.1c1.68-3.78-0.021-8.22-3.811-9.9c-3.78-1.68-8.21,0.03-9.89,3.81c-2.07,4.64-8.8,20.34-8.8,27.48
				c0,1.08,0.01,2.74,4.71,18.54c-17.79,2.38-59.77,5.2-92.45,0.22c12.11-9.16,21.29-18.4,21.29-26.9
				c0-8.86-12.47-31.45-21.33-44.65c-16.09-24-30.62-36.16-43.19-36.16c-14.859,0-30.529,4.7-31.189,4.9
				c-3.97,1.21-6.21,5.39-5,9.36c1.2,3.96,5.39,6.2,9.35,5c0.141-0.05,14.181-4.26,26.84-4.26c4.95,0,15.82,7.51,30.181,28.69
				c11.59,17.1,18.66,33.02,19.31,37c-0.47,1.32-3.99,8.09-29.87,25.27c-16.67,11.07-35.81,21.98-47.25,28.49
				c-4.109,2.35-7.08,4.04-8.85,5.11c-1.86,1.14-3.141,3.03-3.5,5.18c-0.36,2.15,0.24,4.36,1.64,6.03l40.72,48.87
				c1.431,1.71,3.54,2.7,5.771,2.7h17.25c1.99,0,3.83,0.99,4.92,2.64l4.54,6.8h-37.31c-1.48,0-2.891-0.63-3.87-1.74l-51.52-57.95
				c-3.35-3.78-3.59-9.46-0.56-13.5l15.529-20.7c1.2-1.6,1.7-3.62,1.41-5.59c-0.29-1.98-1.359-3.77-2.97-4.95
				c-0.37-0.28-37.67-28.26-37.67-67.27c0-38.76,49.05-82.1,114.68-82.1h109.46c0.74,0,1.48-0.11,2.181-0.33l53.46-16.29
				c2.27-0.69,4.09-2.43,4.88-4.67c0.06-0.17,5.95-16.66,15.46-30.92c1.08-1.61,1.49-3.57,1.149-5.48
				c-0.05-0.23-3.88-21.88-7.279-46.62c-0.021-0.43-0.08-0.87-0.17-1.3c-0.271-1.93-0.53-3.89-0.78-5.85
				c-5.1-39.2-4.59-53.79-3.78-59.07c1.87,0.61,3.54,1.75,5.09,3.47c7.551,8.39,10.841,29.15,8.36,52.89
				c-3.64,34.99,8.95,53.23,9.49,53.99c1.439,2.03,3.63,3.44,6.14,3.39c2.45-0.06,4.56-1.09,5.91-3.12
				c0.74-0.76,5.65-5.25,18.5-5.25C379.66,129.04,393.58,136.61,408.33,150.64z M379.71,149.17c0-6.16-5.01-11.17-11.17-11.17
				c-6.16,0-11.16,5.01-11.16,11.17c0,6.15,5,11.16,11.16,11.16C374.7,160.33,379.71,155.32,379.71,149.17z"/>
			<path style="fill:#3D484A;" d="M418.67,139.78c8.43,8.02,28.04,28.65,28.04,46.92c0,23.84-25.86,31.03-40.79,31.64
				c0.07,0.56,0.08,1.13,0.021,1.71c-4.56,44.06-32.44,76.28-55.03,95.56c-18.08,15.43-37.74,26.62-49.62,31.14
				c6.66,32.83,15.31,68.56,19.6,77.32c0.191,0.02,0.38,0.04,0.58,0.07c8.23,0.98,27.49,3.28,27.49,31.36c0,4.14-3.35,7.5-7.5,7.5
				h-35.52c-11.25,0-21.141-7.18-24.62-17.86c-13.78-42.27-22.42-69.39-27.84-86.91c-11.02,1.65-31.78,3.45-54.33,3.45
				c-20.36,0-42.16-1.48-59.58-5.86c-16.65,10.94-35.08,21.44-46.391,27.89c-0.31,0.17-0.609,0.35-0.91,0.52l32.78,39.33h13.74
				c7.01,0,13.52,3.48,17.4,9.32l12.31,18.46c1.54,2.3,1.68,5.26,0.38,7.7c-1.31,2.44-3.85,3.96-6.62,3.96H110.94
				c-5.761,0-11.261-2.47-15.08-6.78L44.34,398.27c-8.07-9.08-8.64-22.73-1.35-32.46l11.229-14.97
				c-11.97-10.6-37.93-37.82-37.93-74.54c0-23.85,13.86-48.28,38.03-67.02c25.029-19.4,57.58-30.08,91.649-30.08h108.34l48.87-14.89
				c2.23-5.65,7.12-17.06,14.101-28.1c-1.15-6.7-4.07-24.07-6.74-43.46c-2.13-3.42-8.11-12.89-15.92-23.89
				c-5.07-7.14-19.83-48.08-12.45-62.36c2.14-4.13,5.93-6.5,10.42-6.5c9.49,0,16.811,4.58,21.43,8.63
				c0.961-0.31,1.971-0.48,3.011-0.48c7.64,0,14.47,3.09,19.75,8.95c5.08,5.64,16.439,23.21,12.14,64.49
				c-1.83,17.56,1.03,29.87,3.58,36.86c4.82-2.35,11.81-4.41,21.54-4.41C387,114.04,405.59,127.33,418.67,139.78z M431.71,186.7
				c0-8.39-9.18-22.54-23.38-36.06c-14.75-14.03-28.67-21.6-34.29-21.6c-12.85,0-17.76,4.49-18.5,5.25
				c-1.35,2.03-3.46,3.06-5.91,3.12c-2.51,0.05-4.7-1.36-6.14-3.39c-0.54-0.76-13.13-19-9.49-53.99c2.48-23.74-0.81-44.5-8.36-52.89
				c-1.55-1.72-3.22-2.86-5.09-3.47c-0.81,5.28-1.319,19.87,3.78,59.07c0.25,1.96,0.51,3.92,0.78,5.85
				c0.09,0.43,0.149,0.87,0.17,1.3c3.399,24.74,7.229,46.39,7.279,46.62c0.341,1.91-0.069,3.87-1.149,5.48
				c-9.51,14.26-15.4,30.75-15.46,30.92c-0.79,2.24-2.61,3.98-4.88,4.67l-53.46,16.29c-0.7,0.22-1.441,0.33-2.181,0.33H145.97
				c-65.63,0-114.68,43.34-114.68,82.1c0,39.01,37.3,66.99,37.67,67.27c1.61,1.18,2.68,2.97,2.97,4.95
				c0.29,1.97-0.21,3.99-1.41,5.59l-15.529,20.7c-3.03,4.04-2.79,9.72,0.56,13.5l51.52,57.95c0.979,1.11,2.39,1.74,3.87,1.74h37.31
				l-4.54-6.8c-1.09-1.65-2.93-2.64-4.92-2.64h-17.25c-2.23,0-4.34-0.99-5.771-2.7l-40.72-48.87c-1.399-1.67-2-3.88-1.64-6.03
				c0.359-2.15,1.64-4.04,3.5-5.18c1.77-1.07,4.74-2.76,8.85-5.11c11.44-6.51,30.58-17.42,47.25-28.49
				c25.88-17.18,29.4-23.95,29.87-25.27c-0.649-3.98-7.72-19.9-19.31-37c-14.36-21.18-25.23-28.69-30.181-28.69
				c-12.659,0-26.699,4.21-26.84,4.26c-3.96,1.2-8.149-1.04-9.35-5c-1.21-3.97,1.03-8.15,5-9.36c0.66-0.2,16.33-4.9,31.189-4.9
				c12.57,0,27.101,12.16,43.19,36.16c8.86,13.2,21.33,35.79,21.33,44.65c0,8.5-9.18,17.74-21.29,26.9
				c32.68,4.98,74.66,2.16,92.45-0.22c-4.7-15.8-4.71-17.46-4.71-18.54c0-7.14,6.729-22.84,8.8-27.48
				c1.68-3.78,6.109-5.49,9.89-3.81c3.79,1.68,5.49,6.12,3.811,9.9c-3.811,8.58-7.2,18.18-7.48,21.1
				c0.97,5.2,10.93,38.07,36.2,115.61c1.46,4.49,5.63,7.51,10.36,7.51h27.25c-1.91-7.58-7.181-8.21-13.5-8.97
				c-1.48-0.18-2.891-0.34-4.23-0.63c-5.17-1.11-8.07-5.73-12.42-19.76c-2.37-7.66-5.14-18.17-8.21-31.23
				c-5.021-21.4-9.28-42.9-9.58-44.42c0-0.01-0.01-0.03-0.01-0.04c0-0.01-0.01-0.04-0.01-0.04c0-0.01,0-0.03,0-0.04
				c-0.07-0.35-0.11-0.7-0.12-1.06c0-0.07-0.011-0.14-0.011-0.21c0-0.04-0.01-0.09-0.01-0.14c0-0.31,0.03-0.62,0.061-0.93
				c0.01-0.06,0.02-0.12,0.029-0.18c0.12-0.77,0.351-1.5,0.681-2.17c0.01-0.02,0.01-0.05,0.02-0.07l8.15-16.29
				c1.85-3.71,6.35-5.21,10.06-3.36c3.23,1.62,4.78,5.25,3.9,8.61c9.54-5.17,22.1-13.22,34.6-24.1
				c19.51-16.97,43.48-44.9,48.16-82.21c-25.73,2.25-49.26-6.37-64.91-24.33c-2.72-3.13-2.39-7.87,0.73-10.59
				c3.13-2.72,7.87-2.39,10.59,0.73c14.939,17.16,39.38,23.53,65.359,17.04c0.561-0.15,1.141-0.22,1.73-0.23
				C404.5,203.38,431.71,202.74,431.71,186.7z M306.61,59.79c-1.95-20.46-1.801-31.78-0.87-38.36c-1.99-2.08-5.75-5.3-10.59-6.2
				c-0.27,3.09,0.1,9.8,3.22,21.62C301.29,47.92,304.95,57.08,306.61,59.79z"/>
			<path style="fill:#3D484A;" d="M368.54,138c6.16,0,11.17,5.01,11.17,11.17c0,6.15-5.01,11.16-11.17,11.16
				c-6.16,0-11.16-5.01-11.16-11.16C357.38,143.01,362.38,138,368.54,138z"/>
		</g>
	</g>
</g>
<g>
</g>
<g>
</g>
<g>
</g>
<g>
</g>
<g>
</g>
<g>
</g>
<g>
</g>
<g>
</g>
<g>
</g>
<g>
</g>
<g>
</g>
<g>
</g>
<g>
</g>
<g>
</g>
<g>
</g>
</svg>
