<?xml version="1.0" encoding="iso-8859-1"?>
<!-- Generator: Adobe Illustrator 19.0.0, SVG Export Plug-In . SVG Version: 6.00 Build 0)  -->
<svg version="1.1" id="Capa_1" xmlns="http://www.w3.org/2000/svg" xmlns:xlink="http://www.w3.org/1999/xlink" x="0px" y="0px"
	 viewBox="0 0 463 463" style="enable-background:new 0 0 463 463;" xml:space="preserve">
<g>
	<g id="XMLID_78_">
		<g>
			<path style="fill:#D88C62;" d="M419.81,269.59c3.31,2.08,8.98,15.19,11.46,22.76c-6.65,2.86-21.16,6.81-29.82,3.21
				c-17.7-7.36-32.68,4.24-45.01,16.56c-14.46,14.47-54.49,30.87-77.47,32.11c0.18-11.2-1.47-22.38-5.88-32.65
				c-11.52-26.86-38.42-41.09-79.96-42.3c-4.14-0.1-7.59,3.14-7.71,7.28c-0.12,4.14,3.14,7.6,7.28,7.72
				c35.18,1.02,57.59,12.19,66.61,33.21c13.66,31.87-5.75,76.53-15.77,90.51h-12.38c-4.14,0-7.5,3.36-7.5,7.5s3.36,7.5,7.5,7.5h56
				c8.27,0,21.61,3.45,24.1,25h-168.1c-25.28,0-53.45-14.83-75.37-39.68c-23.94-27.14-37.13-61.52-37.13-96.82
				c0-45.93,22.62-86.36,40.79-118.85c12.97-23.2,23.21-41.51,23.21-57.15c0-28.11-32.9-44.56-48.63-50.82
				c3.88-7.33,11.48-19.51,24.15-31.55C96.8,27.83,132.12,15,175.16,15c43.1,0,75.06,22.61,94.99,67.19
				c12.62,28.22,16.32,56.89,17.25,66.41c-18.64,8.38-48.83,27.64-66.52,47.92c-34.5-10.46-72.32-2.3-100.39,22.73
				c-40.41,36.04-50.25,95.92-26.32,160.2c1.13,3.02,3.99,4.88,7.03,4.88c0.87,0,1.76-0.15,2.62-0.47c3.88-1.45,5.85-5.77,4.41-9.65
				c-21.69-58.25-13.38-112,22.24-143.76c28.17-25.12,67.71-30.49,100.73-13.69c3.69,1.88,8.21,0.41,10.09-3.28
				c1.87-3.69,0.4-8.21-3.29-10.08c-0.71-0.36-1.42-0.7-2.13-1.04c17.93-18.64,44.32-33.99,57.85-40.2
				c-0.16,4.23,0.09,6.73,0.13,7.06c0.42,3.84,3.67,6.67,7.44,6.67c0.28,0,0.56-0.01,0.84-0.04c4.12-0.46,7.08-4.17,6.63-8.29
				c-0.03-0.2-1.89-18.77,11.07-45.15c4.61,6.16,11.15,17.99,15.83,39.26c0.9,4.05,4.9,6.6,8.94,5.71c4.05-0.89,6.6-4.89,5.71-8.94
				c-0.49-2.25-1.01-4.39-1.55-6.47c27.48,5.82,45.59,24.05,56.17,38.93c12.11,17,17.47,33.67,18.53,39.15
				c-1.1,1.8-3.49,5.03-7.59,7.56c-8.81,5.44-21.5,5.05-36.71-1.13c-3.83-1.56-8.21,0.29-9.77,4.13c-1.56,3.83,0.29,8.21,4.13,9.77
				c3.27,1.33,6.39,2.41,9.37,3.27c-9.73,5.61-30.13,12.8-70.35,12.16c-0.04,0-0.08,0-0.12,0c-4.09,0-7.44,3.28-7.5,7.38
				c-0.07,4.14,3.24,7.55,7.38,7.62c1.77,0.02,3.51,0.04,5.22,0.04c33.79,0,54.72-5.4,67.54-11.37
				C397.86,263.88,414.04,266.8,419.81,269.59z M389,201.5c0-6.34-5.16-11.5-11.5-11.5c-6.35,0-11.5,5.16-11.5,11.5
				s5.15,11.5,11.5,11.5C383.84,213,389,207.84,389,201.5z"/>
			<path style="fill:#3D484A;" d="M447.34,295.54c0,3.03-1.61,5.63-4.77,7.74c-6.73,4.49-30.57,12.92-46.88,6.13
				c-5.62-2.34-12.98-2.34-28.64,13.32c-17.47,17.47-62.81,35.92-89.36,36.56c-2.83,18.88-9.85,36.62-16.53,48.71h26
				c19.1,0,39.5,12.48,39.5,47.5c0,4.14-3.36,7.5-7.5,7.5h-176c-29.52,0-61.9-16.73-86.62-44.76
				c-26.36-29.88-40.88-67.79-40.88-106.74c0-49.84,23.67-92.16,42.7-126.17c11.43-20.45,21.3-38.1,21.3-49.83
				c0-12.44-11.88-22.28-21.85-28.34c-11.9-7.23-24.11-10.99-24.24-11.03c-1.97-0.6-3.62-1.99-4.53-3.84
				c-0.92-1.85-1.04-4-0.33-5.93c0.34-0.9,8.38-22.23,30.55-43.54C79.58,23.29,116.19,0,175.16,0c48.99,0,86.63,26.44,108.86,76.45
				c8.93,20.11,13.63,40.04,16.08,54.25c2.44-6.94,5.8-14.56,10.38-22.65v-14.7c0-4.14,3.35-7.5,7.5-7.5c4.14,0,7.5,3.36,7.5,7.5
				v13.02c4.42,3.95,11.79,12.56,18.24,29.55c0.08,0.01,0.15,0.01,0.23,0.02c36.86,4.76,60.3,28,73.48,46.65
				c13.67,19.35,21.23,41.2,21.23,48.91c0,0.97-0.19,1.94-0.56,2.84c-0.08,0.21-5.48,12.8-20.07,18.89c3.36,0.83,6.23,1.85,8.4,2.9
				c3.29,1.59,8.42,5.48,14.96,20.76C442.65,279.82,447.34,291.59,447.34,295.54z M431.27,292.35c-2.48-7.57-8.15-20.68-11.46-22.76
				c-5.77-2.79-21.95-5.71-34.75-0.11c-12.82,5.97-33.75,11.37-67.54,11.37c-1.71,0-3.45-0.02-5.22-0.04
				c-4.14-0.07-7.45-3.48-7.38-7.62c0.06-4.1,3.41-7.38,7.5-7.38c0.04,0,0.08,0,0.12,0c40.22,0.64,60.62-6.55,70.35-12.16
				c-2.98-0.86-6.1-1.94-9.37-3.27c-3.84-1.56-5.69-5.94-4.13-9.77c1.56-3.84,5.94-5.69,9.77-4.13c15.21,6.18,27.9,6.57,36.71,1.13
				c4.1-2.53,6.49-5.76,7.59-7.56c-1.06-5.48-6.42-22.15-18.53-39.15c-10.58-14.88-28.69-33.11-56.17-38.93
				c0.54,2.08,1.06,4.22,1.55,6.47c0.89,4.05-1.66,8.05-5.71,8.94c-4.04,0.89-8.04-1.66-8.94-5.71
				c-4.68-21.27-11.22-33.1-15.83-39.26c-12.96,26.38-11.1,44.95-11.07,45.15c0.45,4.12-2.51,7.83-6.63,8.29
				c-0.28,0.03-0.56,0.04-0.84,0.04c-3.77,0-7.02-2.83-7.44-6.67c-0.04-0.33-0.29-2.83-0.13-7.06
				c-13.53,6.21-39.92,21.56-57.85,40.2c0.71,0.34,1.42,0.68,2.13,1.04c3.69,1.87,5.16,6.39,3.29,10.08
				c-1.88,3.69-6.4,5.16-10.09,3.28c-33.02-16.8-72.56-11.43-100.73,13.69c-35.62,31.76-43.93,85.51-22.24,143.76
				c1.44,3.88-0.53,8.2-4.41,9.65c-0.86,0.32-1.75,0.47-2.62,0.47c-3.04,0-5.9-1.86-7.03-4.88
				c-23.93-64.28-14.09-124.16,26.32-160.2c28.07-25.03,65.89-33.19,100.39-22.73c17.69-20.28,47.88-39.54,66.52-47.92
				c-0.93-9.52-4.63-38.19-17.25-66.41C250.22,37.61,218.26,15,175.16,15C132.12,15,96.8,27.83,70.18,53.13
				C57.51,65.17,49.91,77.35,46.03,84.68c15.73,6.26,48.63,22.71,48.63,50.82c0,15.64-10.24,33.95-23.21,57.15
				c-18.17,32.49-40.79,72.92-40.79,118.85c0,35.3,13.19,69.68,37.13,96.82C89.71,433.17,117.88,448,143.16,448h168.1
				c-2.49-21.55-15.83-25-24.1-25h-56c-4.14,0-7.5-3.36-7.5-7.5s3.36-7.5,7.5-7.5h12.38c10.02-13.98,29.43-58.64,15.77-90.51
				c-9.02-21.02-31.43-32.19-66.61-33.21c-4.14-0.12-7.4-3.58-7.28-7.72c0.12-4.14,3.57-7.38,7.71-7.28
				c41.54,1.21,68.44,15.44,79.96,42.3c4.41,10.27,6.06,21.45,5.88,32.65c22.98-1.24,63.01-17.64,77.47-32.11
				c12.33-12.32,27.31-23.92,45.01-16.56C410.11,299.16,424.62,295.21,431.27,292.35z"/>
			<path style="fill:#3D484A;" d="M377.5,190c6.34,0,11.5,5.16,11.5,11.5s-5.16,11.5-11.5,11.5c-6.35,0-11.5-5.16-11.5-11.5
				S371.15,190,377.5,190z"/>
		</g>
	</g>
</g>
<g>
</g>
<g>
</g>
<g>
</g>
<g>
</g>
<g>
</g>
<g>
</g>
<g>
</g>
<g>
</g>
<g>
</g>
<g>
</g>
<g>
</g>
<g>
</g>
<g>
</g>
<g>
</g>
<g>
</g>
</svg>
