<?xml version="1.0" encoding="iso-8859-1"?>
<!-- Generator: Adobe Illustrator 19.0.0, SVG Export Plug-In . SVG Version: 6.00 Build 0)  -->
<svg version="1.1" id="Capa_1" xmlns="http://www.w3.org/2000/svg" xmlns:xlink="http://www.w3.org/1999/xlink" x="0px" y="0px"
	 viewBox="0 0 455 455" style="enable-background:new 0 0 455 455;" xml:space="preserve">
<g>
	<g id="XMLID_86_">
		<g>
			<path style="fill:#FFFFFF;" d="M360.15,213.038c1.6,7.81,4.19,14.13,7.74,18.96c-18.33,11.97-46.01,18.1-70.22,16.02
				c5.32-4.92,9.1-9.31,11.26-13.449c10.25-1.24,33.71-5.74,51.22-21.57C360.15,213.008,360.15,213.018,360.15,213.038z"/>
			<path style="fill:#8C887E;" d="M98.76,265.468c1.41,0.62,2.8,1.2,4.17,1.75c-8.98,13.771-24.96,25.271-39.19,35.5
				c-14.57,10.471-26.68,19.19-30.5,29.32H19.89c-2.7,0-4.89-2.2-4.89-4.9c0-0.93,0.26-1.83,0.77-2.62l50.71-79.689
				C73.84,252.418,84.64,259.338,98.76,265.468z"/>
			<path style="fill:#8C887E;" d="M345.99,257.949l26.43,66.09h-4.92c-15.52,0-47.87-36.36-55.38-60.69
				C323.55,262.939,335.12,261.078,345.99,257.949z"/>
			<path style="fill:#B2AEA0;" d="M440,203.538c0,22.49-8.08,22.76-25.78,23.36c-5.14,0.17-10.46,0.35-15.91,1.23
				c-12.79,2.07-19.2-1.89-22.6-14.46c3.66-0.42,7.41-1.559,11.14-3.43c3.71-1.851,5.21-6.351,3.36-10.061
				c-1.85-3.699-6.36-5.199-10.06-3.35c-3.4,1.689-8.35,3.2-12.71,0.72c-4.7-2.67-7.79-9.439-8.46-18.56
				c-0.44-5.94,2.61-10.73,5.24-13.71c5.91-6.67,14.32-9.99,19.65-10.25c4.13-0.2,7.32-3.721,7.12-7.86
				c-0.2-4.14-3.71-7.34-7.86-7.13c-10.54,0.52-22.38,6.52-30.14,15.3c-6.52,7.37-9.62,15.92-8.97,24.75
				c0.63,8.51,2.88,15.76,6.52,21.37c-18.44,17.05-47.06,18.57-47.36,18.58c-3.63,0.16-6.63,2.9-7.11,6.5
				c-0.04,0.27-0.55,2.81-7.26,9.24c-4.68,4.48-11.41,9.95-21.81,17.76c-34.6,25.95-35,60.54-35,62c0,0.8,0.13,1.6,0.38,2.37
				l4.66,13.96c-8.07-0.88-15.27-5.31-19.63-12.25c-6.33-10.06-13.76-26.101-13.26-45.36c0.58-22.319,11.56-44.33,32.65-65.42
				c2.93-2.93,2.93-7.68,0-10.609c-2.93-2.931-7.67-2.931-10.6,0c-12.59,12.59-22.01,25.609-28.2,38.96
				c-7.64-22.181-23.06-39.521-34.03-47.671c-3.32-2.47-8.02-1.779-10.49,1.54c-2.47,3.33-1.78,8.03,1.55,10.5
				c9.34,6.931,22.53,21.851,28.99,41.051c8.43,25.1,3.5,50.87-14.65,76.6c-1.59,2.26-1.81,5.21-0.58,7.68l2.57,5.15h-22.85
				c-4.23-10.71-14.26-38.92-13.51-64.28c0.1-3.529-2.27-6.649-5.69-7.5c-12.53-3.12-47.18-14.98-56.95-32.2
				c-2.65-4.67-3.2-9.359-1.68-14.35c3.08-10.14,12.29-36.18,31.32-58.85c17.26-20.58,36.67-31.29,57.69-31.83
				c30.71-0.78,72.65,5.18,106.35,9.979c22.72,3.23,42.33,6.03,53.46,6.03c14.21,0,24.26-2.14,33.99-4.21
				c9.19-1.95,17.88-3.79,30.01-3.79C403.57,131.038,440,177.788,440,203.538z M430.5,191.498c0-5.52-4.48-10-10-10s-10,4.48-10,10
				s4.48,10,10,10S430.5,197.018,430.5,191.498z"/>
			<path style="fill:#3D484A;" d="M455,203.538c0,16.16-4.35,26.84-13.3,32.65c-7.8,5.05-17.55,5.38-26.97,5.699
				c-4.68,0.16-9.52,0.32-14.04,1.051c-7.86,1.27-14.64,0.81-20.35-1.36c-0.13,0.12-0.25,0.23-0.39,0.33
				c-5.82,4.28-12.52,7.99-19.8,11.06l28.43,71.07h2.92c4.14,0,7.5,3.35,7.5,7.5c0,4.14-3.36,7.5-7.5,7.5h-24
				c-17.55,0-36.83-20.18-44.31-28.86c-10.8-12.529-23.19-31.229-26.66-47.199c-4.9-0.421-9.7-1.141-14.32-2.16
				c-1.97,1.52-4.04,3.09-6.21,4.72c-25.5,19.13-28.58,43.57-28.95,48.93l5.86,17.57h2.59c4.14,0,7.5,3.35,7.5,7.5
				c0,4.14-3.36,7.5-7.5,7.5h-15.52c-14.43,0-27.62-7.271-35.27-19.44c-3.59-5.699-7.48-13.08-10.47-21.769
				c-2.63,5.93-5.93,12.04-10.06,18.29l3.96,7.92h11.36c4.14,0,7.5,3.35,7.5,7.5c0,4.14-3.36,7.5-7.5,7.5h-56
				c-2.96,0-5.64-1.74-6.85-4.44c-0.68-1.529-15.85-35.83-16.66-69.38c-0.81-0.25-1.7-0.52-2.66-0.819
				c-10.21,17.58-28.57,30.81-44.84,42.5c-7.63,5.489-16.49,11.859-21.51,17.14H63.5c4.14,0,7.5,3.35,7.5,7.5
				c0,4.14-3.36,7.5-7.5,7.5H19.89c-10.97,0-19.89-8.93-19.89-19.9c0-3.79,1.08-7.479,3.11-10.68l54.06-84.95
				c0.04-0.06,0.09-0.12,0.13-0.18c-2.92-7.08-3.26-14.45-0.98-21.97c11.22-36.941,45.53-99.851,102.99-101.32
				c31.96-0.83,74.59,5.25,108.84,10.12c22.16,3.149,41.29,5.88,51.35,5.88c12.63,0,21.49-1.89,30.87-3.88
				c9.55-2.03,19.42-4.12,33.13-4.12c20.45,0,40.16,22.61,47.68,32.33C442.7,163.248,455,185.558,455,203.538z M414.22,226.899
				c17.7-0.601,25.78-0.87,25.78-23.36c0-25.75-36.43-72.5-56.5-72.5c-12.13,0-20.82,1.84-30.01,3.79
				c-9.73,2.07-19.78,4.21-33.99,4.21c-11.13,0-30.74-2.8-53.46-6.03c-33.7-4.8-75.64-10.76-106.35-9.979
				c-21.02,0.54-40.43,11.25-57.69,31.83c-19.03,22.67-28.24,48.71-31.32,58.85c-1.52,4.99-0.97,9.68,1.68,14.35
				c9.77,17.221,44.42,29.08,56.95,32.2c3.42,0.851,5.79,3.971,5.69,7.5c-0.75,25.36,9.28,53.57,13.51,64.28h22.85l-2.57-5.15
				c-1.23-2.47-1.01-5.42,0.58-7.68c18.15-25.729,23.08-51.5,14.65-76.6c-6.46-19.2-19.65-34.12-28.99-41.051
				c-3.33-2.47-4.02-7.17-1.55-10.5c2.47-3.319,7.17-4.01,10.49-1.54c10.97,8.15,26.39,25.49,34.03,47.671
				c6.19-13.351,15.61-26.37,28.2-38.96c2.93-2.931,7.67-2.931,10.6,0c2.93,2.93,2.93,7.68,0,10.609
				c-21.09,21.09-32.07,43.101-32.65,65.42c-0.5,19.26,6.93,35.3,13.26,45.36c4.36,6.94,11.56,11.37,19.63,12.25l-4.66-13.96
				c-0.25-0.771-0.38-1.57-0.38-2.37c0-1.46,0.4-36.05,35-62c10.4-7.809,17.13-13.28,21.81-17.76c6.71-6.431,7.22-8.971,7.26-9.24
				c0.48-3.6,3.48-6.34,7.11-6.5c0.3-0.01,28.92-1.53,47.36-18.58c-3.64-5.61-5.89-12.86-6.52-21.37
				c-0.65-8.83,2.45-17.38,8.97-24.75c7.76-8.78,19.6-14.78,30.14-15.3c4.15-0.21,7.66,2.99,7.86,7.13c0.2,4.14-2.99,7.66-7.12,7.86
				c-5.33,0.26-13.74,3.58-19.65,10.25c-2.63,2.98-5.68,7.77-5.24,13.71c0.67,9.12,3.76,15.89,8.46,18.56
				c4.36,2.48,9.31,0.97,12.71-0.72c3.7-1.85,8.21-0.35,10.06,3.35c1.85,3.71,0.35,8.21-3.36,10.061
				c-3.73,1.87-7.48,3.01-11.14,3.43c3.4,12.57,9.81,16.53,22.6,14.46C403.76,227.248,409.08,227.069,414.22,226.899z
				 M372.42,324.038l-26.43-66.09c-10.87,3.13-22.44,4.99-33.87,5.399c7.51,24.33,39.86,60.69,55.38,60.69H372.42z M367.89,231.998
				c-3.55-4.83-6.14-11.15-7.74-18.96c0-0.02,0-0.03,0-0.04c-17.51,15.83-40.97,20.33-51.22,21.57
				c-2.16,4.14-5.94,8.529-11.26,13.449C321.88,250.098,349.56,243.968,367.89,231.998z M102.93,267.218
				c-1.37-0.55-2.76-1.13-4.17-1.75c-14.12-6.13-24.92-13.05-32.28-20.64l-50.71,79.689c-0.51,0.79-0.77,1.69-0.77,2.62
				c0,2.7,2.19,4.9,4.89,4.9h13.35c3.82-10.13,15.93-18.85,30.5-29.32C77.97,292.489,93.95,280.989,102.93,267.218z"/>
			<path style="fill:#3D484A;" d="M420.5,181.498c5.52,0,10,4.48,10,10s-4.48,10-10,10s-10-4.48-10-10S414.98,181.498,420.5,181.498
				z"/>
		</g>
	</g>
</g>
<g>
</g>
<g>
</g>
<g>
</g>
<g>
</g>
<g>
</g>
<g>
</g>
<g>
</g>
<g>
</g>
<g>
</g>
<g>
</g>
<g>
</g>
<g>
</g>
<g>
</g>
<g>
</g>
<g>
</g>
</svg>
