<?xml version="1.0" encoding="iso-8859-1"?>
<!-- Generator: Adobe Illustrator 19.0.0, SVG Export Plug-In . SVG Version: 6.00 Build 0)  -->
<svg version="1.1" id="Capa_1" xmlns="http://www.w3.org/2000/svg" xmlns:xlink="http://www.w3.org/1999/xlink" x="0px" y="0px"
	 viewBox="0 0 462.999 462.999" style="enable-background:new 0 0 462.999 462.999;" xml:space="preserve">
<g id="XMLID_89_">
	<g>
		<path style="fill:#A86439;" d="M207.339,275.357c-2.14,13.08-9.32,26.58-16.32,39.7c-6.229,11.66-12.159,22.79-14.239,33.3h-7.601
			c-3.699-1.739-7.63-3.63-10.29-4.96c-1.059-20.79-9.449-31.84-16.279-40.819c-3.091-4.07-5.79-7.641-7.431-11.59
			C157.959,276.708,179.599,275.368,207.339,275.357z"/>
		<path style="fill:#A86439;" d="M401.569,348.357h-15.57l-30-22.5c-0.76-0.569-1.62-0.989-2.54-1.239
			c-32.17-8.69-42.57-50.101-42.67-50.5c-0.09-0.391-0.22-0.771-0.37-1.13c11.05-9.131,22.91-21.941,30.53-38.79
			c3.8-1.101,9.35-3.051,14.359-6.12c3.16,9.229,4.881,30.29,4.69,47.699c-0.02,1.771,0.59,3.49,1.72,4.86
			c11.8,14.29,20.05,30.601,27.32,45C393.379,334.227,397.349,342.067,401.569,348.357z"/>
		<path style="fill:#C97743;" d="M446.489,183.368l-3.61,11.17c-3.26,0.779-9.46,1.819-19.38,1.819c-6.25,0-18.59,0-27.25,8h-29.05
			c-5.53,0-10.34-3.939-11.431-9.369l-3.319-16.601c-0.811-4.06-4.76-6.689-8.82-5.88c-4.06,0.81-6.7,4.76-5.88,8.82l3.32,16.609
			c1.239,6.2,4.6,11.551,9.239,15.36c-3.109,2.67-9.84,5.75-16.439,7.24c-2.41,0.54-4.4,2.23-5.33,4.52
			c-14.11,35.061-51.65,51.76-52.01,51.92c-2.48,1.07-4.19,3.38-4.48,6.061l-7.26,65.319h-19.63c-1.65,0-3.19-0.64-4.36-1.8
			c-1.16-1.16-1.8-2.71-1.8-4.35v-18.351c0-1.42-0.4-2.81-1.17-4.01c-31.83-50.229-2.061-85.47-0.7-87.03
			c2.73-3.1,2.44-7.819-0.649-10.569c-3.101-2.74-7.841-2.46-10.591,0.64c-0.409,0.46-10.12,11.55-14.96,30.08
			c-0.609,2.35-1.16,4.91-1.6,7.63c-0.59-0.149-1.2-0.24-1.83-0.24c-37.57,0-66.82,2.44-101.08,33.99
			c-19.5,17.95-50.35,30.01-66.92,30.01c-4.14,0-7.5,3.36-7.5,7.5v16.5h-3.42l-12.28-30.689l12.5-12.5
			c0.87-0.87,1.51-1.94,1.87-3.11c11.45-37.399,47.55-138.28,76.69-155.76c14.58-8.75,61.779-20.86,90.67-15.08
			c31.39,6.28,47.52-1.32,61.75-8.03c8.92-4.199,16.62-7.83,27.72-7.83c8.32,0,14.26,3.94,20.55,8.12
			c5.84,3.87,11.87,7.88,19.45,7.88c9.05,0,15.43-2.35,21.05-4.43c2.851-1.05,5.49-2.01,8.38-2.67c0.851,6.13,3.77,10.9,4.261,11.65
			c1.43,2.239,3.869,3.47,6.35,3.47c1.38,0,2.78-0.38,4.02-1.18c3.49-2.24,4.521-6.851,2.28-10.341
			c-1.03-1.67-2.85-5.989-1.859-8.699c0.779-2.12,3.609-3.44,5.85-4.17c2.24-0.73,3.16-0.141,3.84,0.47
			c2.05,1.83,2.78,5.479,2.55,6.58c-1,4.02,1.441,8.09,5.46,9.1c3.141,0.78,6.301-0.54,8.011-3.06
			c27.319,13.21,28.34,24.97,29.01,32.979c0.109,1.24,0.21,2.4,0.38,3.57C427.419,166.887,428.259,172.578,446.489,183.368z"/>
		<path style="fill:#3D484A;" d="M459.089,173.277c3.16,1.721,4.65,5.461,3.55,8.891l-6.67,20.66c-0.63,1.97-2.05,3.58-3.91,4.47
			c-1.43,0.68-9.5,4.06-28.56,4.06c-5.25,0-14.04,0-18.12,5.16c-1.42,1.8-3.59,2.84-5.88,2.84h-31.66
			c6.53,14.02,7.17,43.131,7.17,53.86c11.96,15.06,20.5,31.96,27.42,45.66c7.33,14.49,14.91,29.479,21.07,29.479h8
			c4.14,0,7.5,3.36,7.5,7.5c0,4.15-3.36,7.5-7.5,7.5h-48c-1.62,0-3.2-0.519-4.5-1.5l-30.89-23.159
			c-32.75-9.71-46.471-43.631-50.53-56.32c-4.51,2.92-8.38,5.05-11.08,6.44l-6.62,59.54h7.62c4.14,0,7.5,3.36,7.5,7.5
			c0,4.15-3.36,7.5-7.5,7.5h-42.34c-5.65,0-10.97-2.199-14.96-6.189c-4-4-6.2-9.311-6.2-14.96v-16.2
			c-4.67-7.64-8.09-15.01-10.52-22.02c-2.9,6.27-6.141,12.34-9.23,18.13c-5.05,9.47-9.89,18.55-12.06,26.239h15.31
			c4.14,0,7.5,3.36,7.5,7.5c0,4.15-3.36,7.5-7.5,7.5h-40c-1.1,0-2.19-0.239-3.18-0.71c0,0-4.051-1.89-8.09-3.85
			c-2.381-1.15-4.28-2.1-5.671-2.81c-2.92-1.511-6.56-3.381-6.56-8.131c0-18.659-6.48-27.18-13.33-36.21
			c-2.77-3.64-5.6-7.39-7.84-11.71c-2.061,1.7-4.14,3.5-6.25,5.44c-16.021,14.75-45.7,30.56-69.58,33.5v9.479h0.5
			c4.14,0,7.5,3.36,7.5,7.5c0,4.15-3.36,7.5-7.5,7.5h-24c-3.07,0-5.82-1.859-6.96-4.71l-16-40c-1.12-2.79-0.46-5.97,1.66-8.09
			l14.689-14.689c2.391-7.601,12.191-38.07,25.42-70.301c20.86-50.829,40.15-81.829,57.33-92.14
			c18.721-11.229,69.521-23.28,101.33-16.92c26.54,5.31,39.11-0.62,52.42-6.89c9.66-4.551,19.65-9.261,34.11-9.261
			c12.85,0,21.72,5.891,28.84,10.62c4.351,2.891,8.11,5.38,11.16,5.38c6.37,0,10.77-1.619,15.86-3.5
			c4.899-1.81,10.359-3.819,17.699-4.359c2.4-2.94,6.181-5.83,12.11-7.771c7.021-2.29,13.691-0.93,18.79,3.82
			c2.08,1.93,3.67,4.229,4.84,6.66c42.25,18.02,43.94,37.87,44.851,48.58c0.05,0.62,0.1,1.189,0.149,1.7
			C443.869,163.897,451.589,169.187,459.089,173.277z M442.879,194.538l3.61-11.17c-18.23-10.79-19.07-16.48-19.41-18.74
			c-0.17-1.17-0.271-2.33-0.38-3.57c-0.67-8.01-1.69-19.77-29.01-32.979c-1.71,2.52-4.87,3.84-8.011,3.06
			c-4.02-1.01-6.46-5.08-5.46-9.1c0.23-1.101-0.5-4.75-2.55-6.58c-0.68-0.61-1.6-1.2-3.84-0.47c-2.24,0.729-5.07,2.05-5.85,4.17
			c-0.99,2.71,0.829,7.029,1.859,8.699c2.24,3.49,1.21,8.101-2.28,10.341c-1.239,0.8-2.64,1.18-4.02,1.18
			c-2.48,0-4.92-1.23-6.35-3.47c-0.49-0.75-3.41-5.52-4.261-11.65c-2.89,0.66-5.529,1.62-8.38,2.67c-5.62,2.08-12,4.43-21.05,4.43
			c-7.58,0-13.61-4.01-19.45-7.88c-6.29-4.18-12.229-8.12-20.55-8.12c-11.1,0-18.8,3.631-27.72,7.83
			c-14.23,6.71-30.36,14.31-61.75,8.03c-28.891-5.78-76.09,6.33-90.67,15.08c-29.141,17.48-65.24,118.36-76.69,155.76
			c-0.36,1.17-1,2.24-1.87,3.11l-12.5,12.5l12.28,30.689h3.42v-16.5c0-4.14,3.36-7.5,7.5-7.5c16.57,0,47.42-12.06,66.92-30.01
			c34.26-31.55,63.51-33.99,101.08-33.99c0.63,0,1.24,0.091,1.83,0.24c0.439-2.72,0.99-5.28,1.6-7.63
			c4.84-18.53,14.551-29.62,14.96-30.08c2.75-3.1,7.49-3.38,10.591-0.64c3.09,2.75,3.38,7.47,0.649,10.569
			c-1.36,1.56-31.13,36.801,0.7,87.03c0.77,1.2,1.17,2.59,1.17,4.01v18.351c0,1.64,0.64,3.189,1.8,4.35c1.17,1.16,2.71,1.8,4.36,1.8
			h19.63l7.26-65.319c0.29-2.681,2-4.99,4.48-6.061c0.359-0.16,37.899-16.859,52.01-51.92c0.93-2.29,2.92-3.979,5.33-4.52
			c6.6-1.49,13.33-4.57,16.439-7.24c-4.64-3.809-8-9.16-9.239-15.36l-3.32-16.609c-0.82-4.061,1.82-8.011,5.88-8.82
			c4.06-0.81,8.01,1.82,8.82,5.88l3.319,16.601c1.091,5.43,5.9,9.369,11.431,9.369h29.05c8.66-8,21-8,27.25-8
			C433.419,196.357,439.619,195.317,442.879,194.538z M385.999,348.357h15.57c-4.221-6.29-8.19-14.13-12.53-22.72
			c-7.271-14.399-15.521-30.71-27.32-45c-1.13-1.37-1.739-3.09-1.72-4.86c0.19-17.409-1.53-38.47-4.69-47.699
			c-5.01,3.069-10.56,5.02-14.359,6.12c-7.62,16.85-19.48,29.659-30.53,38.79c0.15,0.359,0.28,0.739,0.37,1.13
			c0.1,0.399,10.5,41.81,42.67,50.5c0.92,0.25,1.78,0.67,2.54,1.239L385.999,348.357z M191.018,315.057
			c7-13.12,14.181-26.62,16.32-39.7c-27.74,0.011-49.38,1.351-72.16,15.631c1.641,3.949,4.34,7.52,7.431,11.59
			c6.83,8.98,15.22,20.029,16.279,40.819c2.66,1.33,6.591,3.221,10.29,4.96h7.601C178.859,337.847,184.789,326.717,191.018,315.057z
			"/>
	</g>
</g>
<g>
</g>
<g>
</g>
<g>
</g>
<g>
</g>
<g>
</g>
<g>
</g>
<g>
</g>
<g>
</g>
<g>
</g>
<g>
</g>
<g>
</g>
<g>
</g>
<g>
</g>
<g>
</g>
<g>
</g>
</svg>
