<?xml version="1.0" encoding="iso-8859-1"?>
<!-- Generator: Adobe Illustrator 19.0.0, SVG Export Plug-In . SVG Version: 6.00 Build 0)  -->
<svg version="1.1" id="Capa_1" xmlns="http://www.w3.org/2000/svg" xmlns:xlink="http://www.w3.org/1999/xlink" x="0px" y="0px"
	 viewBox="0 0 463 463" style="enable-background:new 0 0 463 463;" xml:space="preserve">
<g id="XMLID_96_">
	<g>
		<path style="fill:#BE915A;" d="M66.2,288.801c3.64,3.641,6.33,7.76,8.07,12.33c-4.41,8.29-14.03,17.76-24.21,27.77
			c-9.29,9.149-19.19,18.899-27.06,29.52v-7.809c4.06-4.21,12.48-13.75,19.6-26.92c8.32-15.41,12.28-31.07,11.81-46.28
			C57.96,280.761,61.9,284.511,66.2,288.801z"/>
		<path style="fill:#D9A361;" d="M447.97,196.591c-0.13,2.311-0.68,3.91-1.55,4.47c-0.45,0.29-4.82,2.591-19.66-4.31
			c-0.02-0.01-0.04-0.02-0.06-0.03c-0.01-0.01-0.02-0.01-0.03-0.02c-0.02-0.01-0.04-0.01-0.06-0.02c-0.2-0.09-0.41-0.18-0.62-0.25
			c-0.06-0.029-0.13-0.04-0.19-0.06c-0.17-0.061-0.34-0.11-0.51-0.15c-0.1-0.029-0.2-0.04-0.3-0.059
			c-0.13-0.03-0.27-0.061-0.41-0.08c-0.13-0.02-0.27-0.03-0.4-0.04c-0.11-0.01-0.21-0.03-0.31-0.03c-0.18-0.01-0.35-0.01-0.53,0
			c-0.07,0-0.13,0-0.2,0c-0.23,0.01-0.46,0.03-0.69,0.07c-0.01,0-0.03,0-0.04,0c-0.02,0-0.03,0-0.04,0.01c-0.02,0-0.03,0-0.05,0
			c-14.48,2.08-33.41-6.78-33.6-6.859c-1.86-0.891-4-0.971-5.92-0.23c-1.92,0.75-3.46,2.25-4.24,4.15
			c-6.22,15.159-37.4,55.409-48.89,69.64c-0.66,0.81-1.14,1.74-1.41,2.75c-9,33.2-39.63,34.43-40.89,34.46
			c-4.09,0.07-7.37,3.41-7.37,7.5c0,8.21-3.29,20.32-6.97,31.21L263,298.581v-15.08c0-4.14-3.36-7.5-7.5-7.5s-7.5,3.36-7.5,7.5v8.62
			c-24.52,6.56-71.65,2.99-93.24,0.84c5.06-8.4,8.24-16.56,8.24-24.46c0-4.14-3.36-7.5-7.5-7.5s-7.5,3.36-7.5,7.5
			c0,12.87-16.32,31.6-32.1,49.72c-12.61,14.471-25.53,29.29-34.07,44.57l-2.13-6.4c2.57-4.559,7.09-13.52,9.78-24.39
			c5.33-21.58,0.94-40.18-12.68-53.8c-5.07-5.08-9.62-9.36-13.63-13.141c-12.34-11.619-19.13-18.02-23.26-29.72
			c-4.29-12.14-0.74-22,2.01-24.34c0.23-0.2,0.44-0.41,0.64-0.63c16.86-14.37,45.19-31.37,68.94-31.37
			c14.25,0,38.39,4.18,61.74,8.22c23.13,4,44.97,7.78,58.26,7.78c4.52,0,9.62-0.38,15.01-0.79c12.15-0.91,25.92-1.941,39.59,0.66
			c23.37,4.45,69.32-33.95,78.3-41.69c2.97-2.56,3.46-6.98,1.14-10.13c-8.35-11.319-9.74-19.88-9.37-25.2
			c8.77,5.62,9.75,13.95,9.85,15.131c0.26,4.1,3.78,7.23,7.89,7.01c4.13-0.23,7.3-3.76,7.08-7.9c-0.03-0.57-0.59-8.84-6.46-17.16
			c0.32,0.04,0.64,0.07,0.97,0.07h8.5v16.5c0,2.51,1.25,4.85,3.34,6.24c2.13,1.42,5.05,2.97,8.14,4.62c3.76,2,11.53,6.13,13.18,8.22
			c0.03,0.07,0.07,0.15,0.1,0.22h-0.26c-4.14,0-7.5,3.36-7.5,7.5c0,4.141,3.36,7.5,7.5,7.5h9.67c0.28,0,0.55-0.02,0.82-0.05
			c4.77,5.52,10.39,11.17,15.66,16.46C439.58,187.151,446.2,193.801,447.97,196.591z"/>
		<path style="fill:#3D484A;" d="M424.99,196.161c0.1,0.02,0.2,0.03,0.3,0.059c0.17,0.04,0.34,0.09,0.51,0.15
			c0.06,0.02,0.13,0.03,0.19,0.06c0.21,0.07,0.42,0.16,0.62,0.25c0.02,0.011,0.04,0.011,0.06,0.02c0.01,0.01,0.02,0.01,0.03,0.02
			c0.02,0.011,0.04,0.021,0.06,0.03c14.84,6.9,19.21,4.6,19.66,4.31c0.87-0.56,1.42-2.159,1.55-4.47
			c-1.77-2.79-8.39-9.439-13.32-14.38c-5.27-5.29-10.89-10.941-15.66-16.46c-0.27,0.03-0.54,0.05-0.82,0.05h-9.67
			c-4.14,0-7.5-3.359-7.5-7.5c0-4.14,3.36-7.5,7.5-7.5h0.26c-0.03-0.069-0.07-0.149-0.1-0.22c-1.65-2.09-9.42-6.22-13.18-8.22
			c-3.09-1.65-6.01-3.2-8.14-4.62c-2.09-1.391-3.34-3.73-3.34-6.24v-16.5h-8.5c-0.33,0-0.65-0.03-0.97-0.07
			c5.87,8.32,6.43,16.59,6.46,17.16c0.22,4.141-2.95,7.67-7.08,7.9c-4.11,0.22-7.63-2.91-7.89-7.01
			c-0.1-1.181-1.08-9.511-9.85-15.131c-0.37,5.32,1.02,13.881,9.37,25.2c2.32,3.15,1.83,7.57-1.14,10.13
			c-8.98,7.74-54.93,46.141-78.3,41.69c-13.67-2.601-27.44-1.57-39.59-0.66c-5.39,0.41-10.49,0.79-15.01,0.79
			c-13.29,0-35.13-3.78-58.26-7.78c-23.35-4.04-47.49-8.22-61.74-8.22c-23.75,0-52.08,17-68.94,31.37c-0.2,0.22-0.41,0.43-0.64,0.63
			c-2.75,2.34-6.3,12.2-2.01,24.34c4.13,11.7,10.92,18.101,23.26,29.72c4.01,3.78,8.56,8.06,13.63,13.141
			c13.62,13.62,18.01,32.22,12.68,53.8c-2.69,10.87-7.21,19.83-9.78,24.39l2.13,6.4c8.54-15.28,21.46-30.1,34.07-44.57
			c15.78-18.12,32.1-36.85,32.1-49.72c0-4.14,3.36-7.5,7.5-7.5s7.5,3.36,7.5,7.5c0,7.9-3.18,16.06-8.24,24.46
			c21.59,2.15,68.72,5.72,93.24-0.84v-8.62c0-4.14,3.36-7.5,7.5-7.5s7.5,3.36,7.5,7.5v15.08l10.03,40.13
			c3.68-10.89,6.97-23,6.97-31.21c0-4.09,3.28-7.43,7.37-7.5c1.26-0.03,31.89-1.26,40.89-34.46c0.27-1.01,0.75-1.94,1.41-2.75
			c11.49-14.23,42.67-54.48,48.89-69.64c0.78-1.9,2.32-3.4,4.24-4.15c1.92-0.74,4.06-0.66,5.92,0.23
			c0.19,0.079,19.12,8.939,33.6,6.859c0.02,0,0.03,0,0.05,0c0.01-0.01,0.02-0.01,0.04-0.01c0.01,0,0.03,0,0.04,0
			c0.23-0.04,0.46-0.061,0.69-0.07c0.07,0,0.13,0,0.2,0c0.18-0.01,0.35-0.01,0.53,0c0.1,0,0.2,0.021,0.31,0.03
			c0.13,0.01,0.27,0.02,0.4,0.04C424.72,196.101,424.86,196.131,424.99,196.161z M463,195.501c0,10.57-4.63,15.74-8.52,18.21
			c-3.1,1.97-6.78,2.96-11.08,2.96c-5.84,0-12.84-1.84-21.08-5.48c-12.23,1.13-25.41-2.73-33.19-5.601
			c-11.64,21.18-40.98,58.12-46.83,65.42c-8.66,29.4-32.06,40.58-47.75,43.3c-2.3,19.03-12.8,44.351-15.55,50.75v41.65l23.04,41.12
			c1.3,2.33,1.28,5.17-0.07,7.46c-1.35,2.3-3.81,3.71-6.47,3.71h-16c-3.23,0-6.09-2.07-7.12-5.13l-8-24
			c-0.25-0.76-0.38-1.56-0.38-2.37v-18.68c0-0.101,0-0.19,0-0.29v-44.11l-3.35-13.38l-6,14.79l-11.8,47.21l19.22,34.84
			c1.28,2.32,1.24,5.15-0.11,7.43c-1.35,2.29-3.81,3.69-6.46,3.69h-16c-3.23,0-6.09-2.07-7.12-5.13l-8-24
			c-0.45-1.351-0.5-2.81-0.16-4.19l15.78-63.1v-53.64c-9.92,1.399-21.3,1.93-32.73,1.93c-26.42,0-53.04-2.78-62.34-3.86
			c-5.37,6.88-11.49,13.9-17.72,21.061c-16.14,18.51-32.8,37.64-38.34,55.819l6.91,20.73l37.32,41.89
			c1.97,2.21,2.45,5.36,1.24,8.061c-1.21,2.689-3.88,4.43-6.84,4.43h-16c-2.51,0-4.85-1.25-6.24-3.34l-16-24
			c-0.37-0.55-0.66-1.16-0.88-1.79l-24-72c-0.72-2.18-0.41-4.57,0.85-6.48c0.06-0.09,6.62-10.27,9.77-23.359
			c0.33-1.36,0.6-2.7,0.83-4.021c-4.61,5.11-9.85,10.28-15.25,15.59c-17.07,16.79-36.42,35.83-37.58,56.17v10.94l23.04,41.12
			c1.3,2.33,1.28,5.17-0.07,7.46c-1.35,2.3-3.81,3.71-6.47,3.71h-16c-3.23,0-6.09-2.07-7.12-5.13l-8-24
			c-0.25-0.76-0.38-1.56-0.38-2.37v-18.68c0-0.101,0-0.19,0-0.29v-61.03c0-2.09,0.87-4.09,2.41-5.5c0.1-0.1,10.84-10.19,19.2-25.82
			c10.75-20.109,12.74-39.64,5.95-58.06c-1.66-2.11-3.18-4.28-4.56-6.59c-0.01,9.34-5.91,17.189-10.65,23.51
			c-2.08,2.76-5.22,6.94-5.35,8.49c0,4.149-3.36,7.489-7.5,7.489s-7.5-3.38-7.5-7.52c0-6.34,4.06-11.75,8.35-17.47
			c3.59-4.771,7.65-10.181,7.65-14.53c0-3.38-0.84-6.43-1.73-9.67c-1.93-6.98-4.32-15.67,3.02-26.53
			c6.28-9.3,21.07-22.109,36.79-31.859c14.29-8.87,35.85-19.44,57.42-19.44c15.54,0,40.33,4.29,64.3,8.44
			c21.48,3.72,43.7,7.56,55.7,7.56c3.96,0,8.78-0.36,13.89-0.75c12.43-0.93,27.9-2.09,43.51,0.88c2.36,0.45,12.1,0.53,38.25-17.32
			c9.1-6.22,17.32-12.67,22.34-16.739c-5.9-9.641-8.7-19.08-8.33-28.16c0.35-8.59,3.49-13.66,4.12-14.59
			c1.85-2.771,5.31-3.971,8.49-2.971c4.14,1.32,7.65,3.021,10.63,4.94c-0.92-1.83-1.8-4.01-2.52-6.58
			c-12.36-1.14-39.5-6.71-62.69-32.74l-22.06-7.35c-3.93-1.311-6.05-5.561-4.75-9.49c1.32-3.93,5.56-6.05,9.49-4.75l13.68,4.56
			c-0.94-11.101-3.27-20.891-6.23-25.19c-2.35-3.41-1.48-8.08,1.93-10.43c3.41-2.351,8.08-1.481,10.43,1.93
			c6.43,9.36,8.99,26.98,9.29,41.37c10.04,11.07,20.79,17.689,30.25,21.62c-7.68-7.08-11.95-14.51-12.26-15.061
			c-0.93-1.66-1.2-3.609-0.75-5.449c4-16.421-0.78-36.04-5.83-40.75c-3.03-2.82-3.19-7.57-0.36-10.601
			c2.82-3.03,7.57-3.189,10.6-0.36c9.7,9.061,14.48,32.69,10.86,52.04c1.33,1.931,3.55,4.87,6.51,7.83
			c5.52-7.27,10.01-17.55,10.01-22.39c0-4.14,3.36-7.5,7.5-7.5s7.5,3.36,7.5,7.5c0,9.18-5.94,21.84-12.67,30.89
			c1.01,0.41,2.04,0.78,3.1,1.061c5.03-4.61,17.47-17.481,18.59-32.51c0.31-4.131,3.91-7.23,8.04-6.921
			c4.13,0.311,7.23,3.91,6.92,8.04c-1.58,21.101-17.88,37.53-23.87,42.9c0.46,7.25,2.33,11.19,3.58,13.04h20.81
			c4.69,0,8.5-3.81,8.5-8.5c0-4.14,3.36-7.5,7.5-7.5s7.5,3.36,7.5,7.5c0,12.96-10.54,23.5-23.5,23.5H399v12.22
			c1.09,0.601,2.29,1.24,3.52,1.9c10.52,5.59,17.59,9.7,19.94,15.59c2.68,6.69,14.32,18.38,22.82,26.91
			C457.88,184.281,463,189.651,463,195.501z M74.27,301.131c-1.74-4.57-4.43-8.69-8.07-12.33c-4.3-4.29-8.24-8.04-11.79-11.39
			c0.47,15.21-3.49,30.87-11.81,46.28c-7.12,13.17-15.54,22.71-19.6,26.92v7.809c7.87-10.62,17.77-20.37,27.06-29.52
			C60.24,318.891,69.86,309.421,74.27,301.131z"/>
	</g>
</g>
<g>
</g>
<g>
</g>
<g>
</g>
<g>
</g>
<g>
</g>
<g>
</g>
<g>
</g>
<g>
</g>
<g>
</g>
<g>
</g>
<g>
</g>
<g>
</g>
<g>
</g>
<g>
</g>
<g>
</g>
</svg>
